<?xml version="1.0" encoding="UTF-8"?><!DOCTYPE svg PUBLIC "-//W3C//DTD SVG 1.1//EN" "http://www.w3.org/Graphics/SVG/1.1/DTD/svg11.dtd"><svg xmlns="http://www.w3.org/2000/svg"><defs><clipPath id="a"><path d="M0 0h31v31H0z"/></clipPath></defs><symbol id="arrow" viewBox="0 0 24 24"><path d="M19 12H5M14 17l5-5M14 7l5 5"/></symbol><symbol id="clapperboard" viewBox="0 0 31 31"><path d="M4.844 13.563h21.312v10.656a.969.969 0 0 1-.968.968H5.813a.969.969 0 0 1-.97-.968V13.562z"/><path d="M4.844 13.563L25.43 8.04l-1.005-3.742a.958.958 0 0 0-1.187-.678L4.528 8.634a.969.969 0 0 0-.69 1.187l1.006 3.742zM15.754 5.619l5.934 3.427M7.338 7.883l5.922 3.427"/></symbol><symbol id="game-controller" viewBox="0 0 31 31"><g clip-path="url(#a)"><path d="M18.406 13.078h3.875M8.719 13.078h3.875M10.656 11.14v3.876M20.828 6.745l-10.656.036a6.309 6.309 0 0 0-6.2 5.207L1.986 22.172a3.39 3.39 0 0 0 5.74 2.991l5.231-5.788 7.871-.036a6.297 6.297 0 0 0 0-12.594z"/><path d="M27.028 11.952l1.986 10.22a3.39 3.39 0 0 1-5.74 2.991l-5.231-5.812"/></g></symbol><symbol id="lightning" viewBox="0 0 16 32"><path d="M4.157 19.01l1.321-.423-1.344 7.46L3.062 32l1.058-1.68 4.198-6.663 2.101-3.336 3.01-4.78L16 11.462l-7.024 2.145 1.226-3.403.546-1.515L13.881 0 4.56 2.308l-2.052 8.114-.373 1.479L0 20.342l4.157-1.332z"/></symbol><symbol id="search" viewBox="0 0 26 26"><path clip-rule="evenodd" d="M12.059 19.12a7.062 7.062 0 1 0 0-14.123 7.062 7.062 0 0 0 0 14.124z"/><path d="M21.003 21.003l-3.951-3.951"/></symbol><symbol id="trophy" viewBox="0 0 31 31"><path clip-rule="evenodd" d="M16.792 21.312h-2.584a5.167 5.167 0 0 1-5.166-5.166V5.812c0-.713.578-1.291 1.291-1.291h10.334c.713 0 1.291.578 1.291 1.291v10.334a5.167 5.167 0 0 1-5.166 5.166z"/><path d="M15.5 21.313v5.166M11.625 26.48h7.75M21.958 8.396h3.875c.713 0 1.292.578 1.292 1.291v2.584a3.875 3.875 0 0 1-3.875 3.875h-1.292M9.042 8.396H5.167c-.713 0-1.292.578-1.292 1.291v2.584a3.875 3.875 0 0 0 3.875 3.875h1.292"/></symbol></svg>